<svg width="286" height="33" viewBox="0 0 286 33" fill="none" xmlns="http://www.w3.org/2000/svg">
<path d="M67.2 32L80.4 32.7L72 22.3L92 23.3L87.9 18.2C85.1 14.7 80.9 12.5999 76.5 12.3999L63.3 11.7L71.7 22.0999L51.7 21.0999L55.8 26.2C58.6 29.6 62.7 31.7 67.2 32Z" fill="#CBD5E1"/>
<path d="M38.5 20.3L51.7 21L43.3 10.6L63.3 11.6L59.2 6.5C56.4 3 52.2 0.899997 47.8 0.699997L34.6 0L43 10.4L23 9.39999L27.1 14.5C29.9 18 34.1 20.1 38.5 20.3Z" fill="#CBD5E1"/>
<path d="M126.32 1.54997V14.31C126.32 16.95 126.027 19.0166 125.44 20.51C124.88 21.9766 123.813 23.0566 122.24 23.75C120.667 24.4433 118.373 24.79 115.36 24.79C113.147 24.79 111.28 24.5633 109.76 24.11C108.24 23.63 107.027 22.7366 106.12 21.43C105.24 20.1233 104.8 18.2833 104.8 15.91V1.54997H112V14.39C112 15.8033 112.067 16.8833 112.2 17.63C112.36 18.35 112.707 18.91 113.24 19.31C113.773 19.6833 114.587 19.87 115.68 19.87C116.347 19.87 116.973 19.8033 117.56 19.67C118.147 19.5366 118.547 19.3366 118.76 19.07C119 18.75 119.12 17.59 119.12 15.59V1.54997H126.32ZM144.637 18.11C144.637 20.4833 143.877 22.19 142.357 23.23C140.864 24.27 138.731 24.79 135.957 24.79C134.011 24.79 131.771 24.51 129.237 23.95C129.291 23.4166 129.411 22.6566 129.597 21.67C129.811 20.6566 129.984 19.8833 130.117 19.35C131.077 19.51 132.144 19.6433 133.317 19.75C134.491 19.83 135.491 19.87 136.317 19.87C137.037 19.87 137.477 19.83 137.637 19.75C137.664 19.7233 137.691 19.6566 137.717 19.55C137.771 19.4166 137.797 19.2833 137.797 19.15C137.797 18.6166 137.464 18.2566 136.797 18.07C136.584 18.0166 135.771 17.79 134.357 17.39C132.944 16.99 131.784 16.27 130.877 15.23C129.997 14.1633 129.557 12.8433 129.557 11.27C129.557 10.4433 129.744 9.52331 130.117 8.50997C130.491 7.49664 130.891 6.85664 131.317 6.58997C131.637 6.37664 132.411 6.16331 133.637 5.94998C134.864 5.70998 135.997 5.58998 137.037 5.58998C139.251 5.58998 141.477 5.74998 143.717 6.06997C143.717 6.54998 143.651 7.36331 143.517 8.50997C143.384 9.62998 143.264 10.3366 143.157 10.63C140.891 10.3366 139.064 10.19 137.677 10.19C136.957 10.19 136.491 10.23 136.277 10.31C136.224 10.3366 136.171 10.4166 136.117 10.55C136.064 10.6566 136.037 10.8033 136.037 10.99C136.037 11.3633 136.157 11.63 136.397 11.79C136.637 11.9766 137.264 12.2033 138.277 12.47C139.477 12.8166 140.504 13.1766 141.357 13.55C142.237 13.9233 142.997 14.4833 143.637 15.23C144.304 15.9766 144.637 16.9366 144.637 18.11ZM158.066 19.55C158.732 19.55 159.972 19.4833 161.786 19.35C162.026 19.35 162.466 19.3233 163.106 19.27L163.706 23.39C161.652 24.35 158.986 24.83 155.706 24.83C152.639 24.83 150.279 24.0566 148.626 22.51C146.999 20.9633 146.186 18.63 146.186 15.51C146.186 13.91 146.386 12.3633 146.786 10.87C147.212 9.37664 147.692 8.33664 148.226 7.74997C148.786 7.16331 149.826 6.65664 151.346 6.22998C152.866 5.80331 154.372 5.58998 155.866 5.58998C158.266 5.58998 160.066 6.01664 161.266 6.86998C162.466 7.72331 163.252 8.90997 163.626 10.43C163.999 11.9233 164.186 13.9366 164.186 16.47C162.372 16.5766 160.599 16.63 158.866 16.63H153.186C153.186 17.4833 153.359 18.1233 153.706 18.55C154.079 18.9766 154.599 19.2566 155.266 19.39C155.932 19.4966 156.866 19.55 158.066 19.55ZM153.586 10.35C153.426 10.43 153.306 10.7766 153.226 11.39C153.146 12.0033 153.092 12.6966 153.066 13.47H155.146C156.399 13.47 157.306 13.4566 157.866 13.43C157.866 12.15 157.679 11.2433 157.306 10.71C156.959 10.1766 156.346 9.90997 155.466 9.90997C154.746 9.90997 154.119 10.0566 153.586 10.35ZM177.993 5.54997C178.34 5.54997 178.7 5.58997 179.073 5.66998C179.473 5.74998 179.766 5.84331 179.953 5.94998C179.953 6.53664 179.886 7.50997 179.753 8.86997C179.62 10.2033 179.5 11.15 179.393 11.71C179.126 11.6833 178.633 11.67 177.913 11.67C176.233 11.67 174.74 11.7633 173.433 11.95V24.35H166.593V5.94998H172.313L173.113 8.90998H173.153C173.926 7.89664 174.753 7.08331 175.633 6.46997C176.513 5.85664 177.3 5.54997 177.993 5.54997ZM195.309 19.35H188.669L187.469 24.35H180.109L187.469 1.54997H196.869L203.909 24.35H196.509L195.309 19.35ZM191.949 6.46997L189.589 14.91H194.349L192.109 6.46997H191.949ZM223.938 5.94998V24.35H218.378L217.618 21.27C215.698 23.59 213.405 24.75 210.738 24.75C209.778 24.75 208.872 24.6166 208.018 24.35C207.192 24.0833 206.565 23.6966 206.138 23.19C205.898 22.8966 205.712 22.1633 205.578 20.99C205.472 19.8166 205.418 18.03 205.418 15.63V5.94998H212.258V15.55C212.258 16.0833 212.272 16.71 212.298 17.43C212.325 18.15 212.405 18.6033 212.538 18.79C212.725 19.0566 213.258 19.19 214.138 19.19L214.778 19.15C215.525 19.1233 216.298 18.95 217.098 18.63V5.94998H223.938ZM235.698 16.79C235.698 17.27 235.711 17.7766 235.738 18.31C235.765 18.8166 235.845 19.1366 235.978 19.27C236.165 19.4566 236.818 19.55 237.938 19.55L239.298 19.51C239.538 20.79 239.658 22.27 239.658 23.95C239.151 24.1366 238.405 24.31 237.418 24.47C236.458 24.63 235.538 24.71 234.658 24.71C232.818 24.71 231.391 24.31 230.378 23.51C229.391 22.6833 228.898 21.4166 228.898 19.71V9.86997H225.898V6.22998L228.898 5.94998L230.698 1.54997L235.698 1.26997V5.94998H239.938V9.86997H235.698V16.79ZM259.784 7.10997C260.024 7.40331 260.197 8.13664 260.304 9.30997C260.437 10.4833 260.504 12.27 260.504 14.67V24.35H253.664V14.75C253.664 14.6433 253.664 14.1233 253.664 13.19C253.664 12.23 253.597 11.6433 253.464 11.43C253.384 11.3233 253.184 11.2433 252.864 11.19C252.57 11.1366 252.224 11.11 251.824 11.11L251.144 11.15C250.397 11.1766 249.624 11.35 248.824 11.67V24.35H241.984V0.349975L248.824 0.0699735V4.74998C248.824 6.66998 248.757 7.94997 248.624 8.58997L248.664 8.62998C250.477 6.57664 252.65 5.54997 255.184 5.54997C256.144 5.54997 257.037 5.68331 257.864 5.94998C258.717 6.21664 259.357 6.60331 259.784 7.10997Z" fill="#CBD5E1"/>
</svg>
